<mxfile host="drawio-plugin" modified="2021-04-25T10:17:16.609Z" agent="5.0 (Windows NT 6.2; Win64; x64) AppleWebKit/537.36 (KHTML, like Gecko) Chrome/87.0.4280.141 Safari/537.36" etag="YXwmZs93sXjajGxVnzUa" version="13.7.9" type="embed"><diagram id="sopUXFQ9_nwKrAntjHNr" name="Page-1"><mxGraphModel dx="823" dy="415" grid="1" gridSize="10" guides="1" tooltips="1" connect="1" arrows="1" fold="1" page="1" pageScale="1" pageWidth="850" pageHeight="1100" math="0" shadow="0"><root><mxCell id="0"/><mxCell id="1" parent="0"/><mxCell id="2" value="" style="strokeWidth=2;html=1;shape=mxgraph.flowchart.document2;whiteSpace=wrap;size=0.25;rotation=-90;horizontal=1;verticalAlign=middle;" parent="1" vertex="1"><mxGeometry x="551.5" y="102.5" width="60" height="95" as="geometry"/></mxCell><mxCell id="12" style="edgeStyle=orthogonalEdgeStyle;rounded=0;orthogonalLoop=1;jettySize=auto;html=1;entryX=0.167;entryY=0.989;entryDx=0;entryDy=0;entryPerimeter=0;exitX=1;exitY=1;exitDx=0;exitDy=0;" edge="1" parent="1" source="5" target="2"><mxGeometry relative="1" as="geometry"><mxPoint x="424" y="183" as="sourcePoint"/><Array as="points"><mxPoint x="424" y="220"/><mxPoint x="628" y="220"/></Array></mxGeometry></mxCell><mxCell id="13" value="IP包中数据" style="edgeLabel;html=1;align=center;verticalAlign=middle;resizable=0;points=[];" vertex="1" connectable="0" parent="12"><mxGeometry x="-0.2044" y="1" relative="1" as="geometry"><mxPoint as="offset"/></mxGeometry></mxCell><mxCell id="3" value="TCP/UDP 包首部&lt;br&gt;&lt;br&gt;源端口，目标端口" style="rounded=0;whiteSpace=wrap;html=1;" parent="1" vertex="1"><mxGeometry x="424" y="120" width="110" height="60" as="geometry"/></mxCell><mxCell id="4" value="应用层数据包" style="text;html=1;strokeColor=none;fillColor=none;align=center;verticalAlign=middle;whiteSpace=wrap;rounded=0;" parent="1" vertex="1"><mxGeometry x="551.5" y="140" width="40" height="20" as="geometry"/></mxCell><mxCell id="17" style="edgeStyle=orthogonalEdgeStyle;rounded=0;orthogonalLoop=1;jettySize=auto;html=1;exitX=0;exitY=0;exitDx=0;exitDy=0;entryX=1.017;entryY=0.905;entryDx=0;entryDy=0;entryPerimeter=0;" edge="1" parent="1" source="5" target="2"><mxGeometry relative="1" as="geometry"><Array as="points"><mxPoint x="322" y="60"/><mxPoint x="620" y="60"/></Array></mxGeometry></mxCell><mxCell id="18" value="以太网包中数据" style="edgeLabel;html=1;align=center;verticalAlign=middle;resizable=0;points=[];" vertex="1" connectable="0" parent="17"><mxGeometry x="-0.0563" relative="1" as="geometry"><mxPoint as="offset"/></mxGeometry></mxCell><mxCell id="5" value="IP 包首部&lt;br&gt;&lt;br&gt;发送端、接收端 IP，协议类型" style="rounded=0;whiteSpace=wrap;html=1;" parent="1" vertex="1"><mxGeometry x="322" y="120" width="102" height="60" as="geometry"/></mxCell><mxCell id="6" value="以太网包首部&lt;br&gt;&lt;br&gt;发送端、接收端MAC地址，以太网类型" style="rounded=0;whiteSpace=wrap;html=1;" parent="1" vertex="1"><mxGeometry x="200" y="120" width="122" height="60" as="geometry"/></mxCell><mxCell id="11" value="TCP包中数据" style="curved=1;endArrow=classic;html=1;exitX=-0.017;exitY=-0.021;exitDx=0;exitDy=0;exitPerimeter=0;entryX=0.017;entryY=0.863;entryDx=0;entryDy=0;entryPerimeter=0;" parent="1" source="2" target="2" edge="1"><mxGeometry x="-0.0585" y="20" width="50" height="50" relative="1" as="geometry"><mxPoint x="514" y="290" as="sourcePoint"/><mxPoint x="582" y="300" as="targetPoint"/><Array as="points"><mxPoint x="540" y="210"/><mxPoint x="610" y="210"/></Array><mxPoint as="offset"/></mxGeometry></mxCell><mxCell id="19" value="" style="strokeWidth=2;html=1;shape=mxgraph.flowchart.document2;whiteSpace=wrap;size=0.25;rotation=-90;horizontal=1;verticalAlign=middle;" vertex="1" parent="1"><mxGeometry x="551.5" y="304" width="60" height="95" as="geometry"/></mxCell><mxCell id="20" value="TCP/UDP 包首部" style="rounded=0;whiteSpace=wrap;html=1;" vertex="1" parent="1"><mxGeometry x="424" y="321.5" width="110" height="60" as="geometry"/></mxCell><mxCell id="21" value="应用层数据包" style="text;html=1;strokeColor=none;fillColor=none;align=center;verticalAlign=middle;whiteSpace=wrap;rounded=0;" vertex="1" parent="1"><mxGeometry x="551.5" y="341.5" width="40" height="20" as="geometry"/></mxCell><mxCell id="22" value="IP 包首部" style="rounded=0;whiteSpace=wrap;html=1;" vertex="1" parent="1"><mxGeometry x="322" y="321.5" width="102" height="60" as="geometry"/></mxCell><mxCell id="23" value="以太网包首部" style="rounded=0;whiteSpace=wrap;html=1;" vertex="1" parent="1"><mxGeometry x="200" y="321.5" width="122" height="60" as="geometry"/></mxCell><mxCell id="24" value="数据链路层" style="text;html=1;strokeColor=none;fillColor=none;align=center;verticalAlign=middle;whiteSpace=wrap;rounded=0;" vertex="1" parent="1"><mxGeometry x="216" y="100" width="90" height="20" as="geometry"/></mxCell><mxCell id="25" value="网络层" style="text;html=1;strokeColor=none;fillColor=none;align=center;verticalAlign=middle;whiteSpace=wrap;rounded=0;" vertex="1" parent="1"><mxGeometry x="328" y="100" width="90" height="20" as="geometry"/></mxCell><mxCell id="26" value="传输层" style="text;html=1;strokeColor=none;fillColor=none;align=center;verticalAlign=middle;whiteSpace=wrap;rounded=0;" vertex="1" parent="1"><mxGeometry x="434" y="100" width="90" height="20" as="geometry"/></mxCell><mxCell id="27" value="会话层&lt;br&gt;表示层&lt;br&gt;应用层" style="text;html=1;strokeColor=none;fillColor=none;align=center;verticalAlign=middle;whiteSpace=wrap;rounded=0;" vertex="1" parent="1"><mxGeometry x="534" y="68.5" width="90" height="51.5" as="geometry"/></mxCell><mxCell id="28" value="" style="strokeWidth=2;html=1;shape=mxgraph.flowchart.document2;whiteSpace=wrap;size=0.25;rotation=-90;horizontal=1;verticalAlign=middle;" vertex="1" parent="1"><mxGeometry x="551.5" y="363.5" width="60" height="95" as="geometry"/></mxCell><mxCell id="29" value="TCP/UDP 包首部" style="rounded=0;whiteSpace=wrap;html=1;" vertex="1" parent="1"><mxGeometry x="424" y="381" width="110" height="60" as="geometry"/></mxCell><mxCell id="30" value="应用层数据包" style="text;html=1;strokeColor=none;fillColor=none;align=center;verticalAlign=middle;whiteSpace=wrap;rounded=0;" vertex="1" parent="1"><mxGeometry x="551.5" y="401" width="40" height="20" as="geometry"/></mxCell><mxCell id="31" value="IP 包首部" style="rounded=0;whiteSpace=wrap;html=1;" vertex="1" parent="1"><mxGeometry x="322" y="381" width="102" height="60" as="geometry"/></mxCell><mxCell id="32" value="以太网包首部" style="rounded=0;whiteSpace=wrap;html=1;" vertex="1" parent="1"><mxGeometry x="200" y="381" width="122" height="60" as="geometry"/></mxCell><mxCell id="33" value="" style="strokeWidth=2;html=1;shape=mxgraph.flowchart.document2;whiteSpace=wrap;size=0.25;rotation=-90;horizontal=1;verticalAlign=middle;" vertex="1" parent="1"><mxGeometry x="551.5" y="424" width="60" height="95" as="geometry"/></mxCell><mxCell id="34" value="TCP/UDP 包首部" style="rounded=0;whiteSpace=wrap;html=1;" vertex="1" parent="1"><mxGeometry x="424" y="441.5" width="110" height="60" as="geometry"/></mxCell><mxCell id="35" value="应用层数据包" style="text;html=1;strokeColor=none;fillColor=none;align=center;verticalAlign=middle;whiteSpace=wrap;rounded=0;" vertex="1" parent="1"><mxGeometry x="551.5" y="461.5" width="40" height="20" as="geometry"/></mxCell><mxCell id="36" value="IP 包首部" style="rounded=0;whiteSpace=wrap;html=1;" vertex="1" parent="1"><mxGeometry x="322" y="441.5" width="102" height="60" as="geometry"/></mxCell><mxCell id="37" value="以太网包首部" style="rounded=0;whiteSpace=wrap;html=1;" vertex="1" parent="1"><mxGeometry x="200" y="441.5" width="122" height="60" as="geometry"/></mxCell><mxCell id="38" value="" style="strokeWidth=2;html=1;shape=mxgraph.flowchart.document2;whiteSpace=wrap;size=0.25;rotation=-90;horizontal=1;verticalAlign=middle;" vertex="1" parent="1"><mxGeometry x="551.5" y="483.5" width="60" height="95" as="geometry"/></mxCell><mxCell id="39" value="TCP/UDP 包首部" style="rounded=0;whiteSpace=wrap;html=1;" vertex="1" parent="1"><mxGeometry x="424" y="501" width="110" height="60" as="geometry"/></mxCell><mxCell id="40" value="应用层数据包" style="text;html=1;strokeColor=none;fillColor=none;align=center;verticalAlign=middle;whiteSpace=wrap;rounded=0;" vertex="1" parent="1"><mxGeometry x="551.5" y="521" width="40" height="20" as="geometry"/></mxCell><mxCell id="41" value="IP 包首部" style="rounded=0;whiteSpace=wrap;html=1;" vertex="1" parent="1"><mxGeometry x="322" y="501" width="102" height="60" as="geometry"/></mxCell><mxCell id="42" value="以太网包首部" style="rounded=0;whiteSpace=wrap;html=1;" vertex="1" parent="1"><mxGeometry x="200" y="501" width="122" height="60" as="geometry"/></mxCell><mxCell id="43" value="以太网数据包如果过大，会进行切包处理" style="text;html=1;strokeColor=none;fillColor=none;align=center;verticalAlign=middle;whiteSpace=wrap;rounded=0;" vertex="1" parent="1"><mxGeometry x="271.5" y="290" width="280" height="20" as="geometry"/></mxCell><mxCell id="47" style="edgeStyle=orthogonalEdgeStyle;rounded=0;orthogonalLoop=1;jettySize=auto;html=1;entryX=0;entryY=0.5;entryDx=0;entryDy=0;" edge="1" parent="1" source="45" target="46"><mxGeometry relative="1" as="geometry"/></mxCell><mxCell id="45" value="用户" style="shape=umlActor;verticalLabelPosition=bottom;verticalAlign=top;html=1;outlineConnect=0;" vertex="1" parent="1"><mxGeometry x="60" y="640" width="30" height="60" as="geometry"/></mxCell><mxCell id="49" value="" style="edgeStyle=orthogonalEdgeStyle;rounded=0;orthogonalLoop=1;jettySize=auto;html=1;" edge="1" parent="1" source="46" target="48"><mxGeometry relative="1" as="geometry"/></mxCell><mxCell id="46" value="www.baidu.com" style="text;html=1;strokeColor=none;fillColor=none;align=center;verticalAlign=middle;whiteSpace=wrap;rounded=0;" vertex="1" parent="1"><mxGeometry x="120" y="660" width="90" height="20" as="geometry"/></mxCell><mxCell id="51" style="edgeStyle=orthogonalEdgeStyle;rounded=0;orthogonalLoop=1;jettySize=auto;html=1;exitX=0.5;exitY=1;exitDx=0;exitDy=0;entryX=0.5;entryY=0;entryDx=0;entryDy=0;" edge="1" parent="1" source="48" target="54"><mxGeometry relative="1" as="geometry"><mxPoint x="305" y="720" as="targetPoint"/></mxGeometry></mxCell><mxCell id="57" style="edgeStyle=orthogonalEdgeStyle;rounded=0;orthogonalLoop=1;jettySize=auto;html=1;exitX=1;exitY=0.5;exitDx=0;exitDy=0;entryX=0;entryY=0.5;entryDx=0;entryDy=0;" edge="1" parent="1" source="48" target="56"><mxGeometry relative="1" as="geometry"/></mxCell><mxCell id="48" value="浏览器" style="whiteSpace=wrap;html=1;" vertex="1" parent="1"><mxGeometry x="250" y="650" width="110" height="40" as="geometry"/></mxCell><mxCell id="54" value="以太网数据包" style="whiteSpace=wrap;html=1;" vertex="1" parent="1"><mxGeometry x="250" y="760" width="110" height="40" as="geometry"/></mxCell><mxCell id="58" value="百度 IP 地址" style="edgeStyle=orthogonalEdgeStyle;rounded=0;orthogonalLoop=1;jettySize=auto;html=1;exitX=0.5;exitY=1;exitDx=0;exitDy=0;entryX=0.75;entryY=1;entryDx=0;entryDy=0;" edge="1" parent="1" source="56" target="48"><mxGeometry relative="1" as="geometry"><mxPoint x="360" y="740" as="targetPoint"/></mxGeometry></mxCell><mxCell id="56" value="DNS 服务器" style="whiteSpace=wrap;html=1;" vertex="1" parent="1"><mxGeometry x="418" y="650" width="110" height="40" as="geometry"/></mxCell><mxCell id="61" value="以太网数据包" style="whiteSpace=wrap;html=1;" vertex="1" parent="1"><mxGeometry x="250" y="840" width="110" height="40" as="geometry"/></mxCell><mxCell id="62" value="以太网数据包" style="whiteSpace=wrap;html=1;" vertex="1" parent="1"><mxGeometry x="250" y="880" width="110" height="40" as="geometry"/></mxCell><mxCell id="65" style="edgeStyle=orthogonalEdgeStyle;rounded=0;orthogonalLoop=1;jettySize=auto;html=1;exitX=1;exitY=1;exitDx=0;exitDy=0;entryX=0;entryY=0.5;entryDx=0;entryDy=0;" edge="1" parent="1" source="63" target="64"><mxGeometry relative="1" as="geometry"><Array as="points"><mxPoint x="370" y="840"/><mxPoint x="370" y="840"/></Array></mxGeometry></mxCell><mxCell id="63" value="以太网数据包" style="whiteSpace=wrap;html=1;" vertex="1" parent="1"><mxGeometry x="250" y="800" width="110" height="40" as="geometry"/></mxCell><mxCell id="70" style="edgeStyle=orthogonalEdgeStyle;rounded=0;orthogonalLoop=1;jettySize=auto;html=1;exitX=1;exitY=0.5;exitDx=0;exitDy=0;entryX=0;entryY=0.5;entryDx=0;entryDy=0;" edge="1" parent="1" source="64" target="67"><mxGeometry relative="1" as="geometry"/></mxCell><mxCell id="64" value="网关" style="whiteSpace=wrap;html=1;" vertex="1" parent="1"><mxGeometry x="418" y="820" width="110" height="40" as="geometry"/></mxCell><mxCell id="78" value="" style="edgeStyle=orthogonalEdgeStyle;rounded=0;orthogonalLoop=1;jettySize=auto;html=1;" edge="1" parent="1" source="66" target="75"><mxGeometry relative="1" as="geometry"/></mxCell><mxCell id="66" value="baidu.com 网关" style="whiteSpace=wrap;html=1;" vertex="1" parent="1"><mxGeometry x="418" y="880" width="110" height="40" as="geometry"/></mxCell><mxCell id="71" style="edgeStyle=orthogonalEdgeStyle;rounded=0;orthogonalLoop=1;jettySize=auto;html=1;exitX=0.5;exitY=1;exitDx=0;exitDy=0;entryX=0.5;entryY=0;entryDx=0;entryDy=0;" edge="1" parent="1" source="67" target="68"><mxGeometry relative="1" as="geometry"/></mxCell><mxCell id="67" value="其他网关" style="whiteSpace=wrap;html=1;" vertex="1" parent="1"><mxGeometry x="551.5" y="820" width="110" height="40" as="geometry"/></mxCell><mxCell id="72" value="" style="edgeStyle=orthogonalEdgeStyle;rounded=0;orthogonalLoop=1;jettySize=auto;html=1;" edge="1" parent="1" source="68" target="66"><mxGeometry relative="1" as="geometry"/></mxCell><mxCell id="68" value="其他网关" style="whiteSpace=wrap;html=1;" vertex="1" parent="1"><mxGeometry x="552" y="880" width="111.5" height="40" as="geometry"/></mxCell><mxCell id="79" value="解析、处理、返回结果" style="edgeStyle=orthogonalEdgeStyle;rounded=0;orthogonalLoop=1;jettySize=auto;html=1;" edge="1" parent="1" source="75" target="76"><mxGeometry relative="1" as="geometry"/></mxCell><mxCell id="75" value="百度服务器" style="whiteSpace=wrap;html=1;" vertex="1" parent="1"><mxGeometry x="418" y="960" width="110" height="40" as="geometry"/></mxCell><mxCell id="76" value="再层层封装，网关传输，浏览器解包，渲染。略..." style="whiteSpace=wrap;html=1;align=left;" vertex="1" parent="1"><mxGeometry x="580" y="1010" width="136.5" height="40" as="geometry"/></mxCell></root></mxGraphModel></diagram></mxfile>